# xmcd CD database file
#
# Track frame offsets:
#	150
#	17193
#	29173
#	45818
#	64170
#	77684
#	88821
#	102938
#	113037
#	127846
#	136547
#	146841
#	157750
#	168641
#	182395
#
# Disc length: 2601 seconds
#
# Revision: 0
# Processed by: cddbd v1.5.2PL0 Copyright (c) Steve Scherf et al.
# Submitted via: CDex 1.51
#
DISCID=b90a270f
DTITLE=Paul Zimmer - Celtic Dreams
DYEAR=2003
DGENRE=New Age
TTITLE0=Dance On The Mountaintop
TTITLE1=Danny Boy
TTITLE2=Sunset On The Sea Cliffs
TTITLE3=Sweet Sorrows
TTITLE4=Autumn Rose
TTITLE5=Magical Flight
TTITLE6=The Tale Of Misty Hollow
TTITLE7=Scarborough Fair
TTITLE8=Lullaby Of The Meadowlark
TTITLE9=Twilight With The Leprechauns
TTITLE10=When You And I Were Young, Maggie
TTITLE11=Daydreams Of Rebecca
TTITLE12=A Toast To Friends
TTITLE13=Meadow Of Dreams
TTITLE14=My Love Has Gone Away
EXTD=YEAR: 2003
EXTT0=
EXTT1=
EXTT2=
EXTT3=
EXTT4=
EXTT5=
EXTT6=
EXTT7=
EXTT8=
EXTT9=
EXTT10=
EXTT11=
EXTT12=
EXTT13=
EXTT14=
PLAYORDER=
